<?xml version="1.0" standalone="no"?>
<!DOCTYPE svg PUBLIC "-//W3C//DTD SVG 20010904//EN"
 "http://www.w3.org/TR/2001/REC-SVG-20010904/DTD/svg10.dtd">
<svg version="1.0" xmlns="http://www.w3.org/2000/svg"
 width="1880.000000pt" height="1880.000000pt" viewBox="0 0 1880.000000 1880.000000"
 preserveAspectRatio="xMidYMid meet">
<metadata>
Created by potrace 1.14, written by Peter Selinger 2001-2017
</metadata>
<g transform="translate(0.000000,1880.000000) scale(0.100000,-0.100000)"
fill="#000000" stroke="none">
<path d="M9065 18784 c-628 -32 -1066 -85 -1575 -189 -176 -36 -593 -139 -705
-174 -33 -11 -116 -36 -185 -57 -408 -122 -909 -323 -1355 -544 -412 -205
-694 -367 -1055 -608 -1180 -790 -2162 -1826 -2874 -3032 -599 -1014 -993
-2092 -1181 -3229 -97 -590 -132 -1078 -121 -1671 6 -371 15 -535 46 -840 212
-2081 1106 -4017 2554 -5530 987 -1031 2168 -1810 3501 -2310 643 -241 1299
-406 2005 -504 311 -43 566 -64 948 -78 757 -27 1531 38 2257 191 1499 316
2851 966 4043 1944 157 129 371 319 497 442 100 97 99 97 -35 -2 -645 -473
-1431 -813 -2277 -983 -737 -148 -1595 -164 -2403 -44 -1525 225 -2952 922
-4114 2009 -1273 1190 -2170 2765 -2616 4590 -177 727 -273 1406 -311 2210
-15 326 -7 1027 15 1245 116 1154 416 2139 941 3085 814 1469 2106 2627 3600
3227 492 197 1038 341 1530 402 321 40 481 48 855 43 448 -6 658 -25 1085 -98
220 -38 635 -135 759 -178 33 -12 61 -19 63 -18 9 9 -334 140 -598 227 -750
250 -1463 392 -2269 455 -183 14 -870 27 -1025 19z"/>
<path d="M11815 17579 c-1007 -34 -1964 -366 -2775 -962 -281 -207 -684 -585
-912 -857 -314 -374 -583 -786 -807 -1238 -451 -906 -711 -1943 -761 -3036
-10 -226 1 -907 20 -1166 29 -409 85 -859 149 -1200 11 -58 25 -132 31 -165
70 -377 230 -947 385 -1370 119 -322 364 -885 386 -885 11 0 322 207 484 323
1379 988 2881 2397 4128 3874 l86 103 -107 167 c-814 1278 -1711 2312 -2767
3192 -451 376 -992 752 -1398 970 -54 30 -97 55 -95 56 4 4 357 -55 598 -99
639 -117 1579 -335 2135 -496 442 -127 593 -172 825 -245 625 -197 1258 -427
1815 -660 199 -83 300 -128 665 -293 85 -39 158 -68 161 -64 31 33 346 633
444 847 324 706 495 1362 495 1899 0 204 -38 459 -73 493 -40 38 -430 244
-642 338 -789 350 -1589 503 -2470 474z"/>
<path d="M15002 16688 c203 -235 456 -635 661 -1043 496 -993 809 -2164 933
-3498 l17 -188 86 -67 c731 -569 1363 -1241 1719 -1829 178 -293 320 -621 348
-801 27 -175 29 198 3 643 -64 1098 -340 2225 -798 3258 -585 1320 -1464 2464
-2476 3223 -182 137 -520 364 -541 364 -3 0 19 -28 48 -62z"/>
<path d="M18720 9154 c-72 -47 -299 -161 -464 -233 -402 -178 -968 -375 -1589
-551 -131 -38 -240 -70 -242 -72 -1 -1 -19 -95 -40 -208 -325 -1803 -990
-3558 -1831 -4831 -121 -183 -263 -381 -282 -393 -5 -3 1 31 14 77 48 164 93
442 120 737 23 253 23 816 0 1105 -72 899 -251 1755 -573 2738 -45 139 -57
167 -71 163 -23 -7 -931 -184 -1227 -240 -420 -79 -1395 -249 -1790 -311
-1130 -178 -1823 -277 -2550 -365 -137 -17 -322 -39 -411 -50 -88 -11 -177
-20 -197 -20 -24 0 -40 -5 -43 -14 -13 -33 265 -518 489 -856 551 -828 1219
-1505 2042 -2071 673 -463 1540 -832 2260 -963 385 -70 699 -89 1085 -66 1201
73 2226 505 3130 1318 978 879 1723 2222 2050 3697 105 471 190 1126 178 1372
l-3 72 -55 -35z"/>
</g>
</svg>
