<?xml version="1.0" standalone="no"?>
<!DOCTYPE svg PUBLIC "-//W3C//DTD SVG 20010904//EN"
 "http://www.w3.org/TR/2001/REC-SVG-20010904/DTD/svg10.dtd">
<svg version="1.0" xmlns="http://www.w3.org/2000/svg"
 width="523.000000pt" height="523.000000pt" viewBox="0 0 523.000000 523.000000"
 preserveAspectRatio="xMidYMid meet">
<metadata>
Created by potrace 1.14, written by Peter Selinger 2001-2017
</metadata>
<g transform="translate(0.000000,523.000000) scale(0.100000,-0.100000)"
fill="#000000" stroke="none">
<path d="M2429 5226 c-2 -2 -39 -7 -81 -10 -324 -27 -719 -152 -1028 -327 -69
-39 -268 -171 -295 -196 -11 -10 -29 -25 -41 -33 -67 -47 -250 -222 -340 -326
-202 -232 -366 -506 -477 -799 -39 -104 -101 -313 -112 -379 -2 -11 -9 -50
-15 -86 -29 -161 -38 -292 -35 -500 2 -118 6 -224 8 -235 3 -12 8 -48 12 -80
20 -175 101 -472 174 -640 65 -151 182 -369 237 -442 13 -17 24 -36 24 -42 0
-6 5 -11 10 -11 6 0 14 -8 17 -17 23 -61 299 -365 424 -468 34 -27 67 -54 73
-60 47 -42 259 -187 326 -223 181 -98 306 -154 456 -205 160 -55 321 -94 464
-113 19 -2 42 -6 50 -9 27 -8 213 -18 335 -18 111 -1 240 7 325 18 19 3 53 8
74 10 22 3 83 15 135 26 447 95 854 300 1190 597 112 99 229 221 296 307 17
21 44 55 60 76 59 76 72 95 137 199 114 182 208 388 271 590 33 106 51 176 47
182 -1 2 3 15 9 31 9 24 22 92 37 190 2 15 6 42 9 60 24 162 24 460 0 647 -65
506 -261 956 -594 1360 -46 56 -239 251 -301 305 -368 317 -851 532 -1345 601
-27 3 -59 9 -70 11 -24 5 -461 13 -466 9z"/>
</g>
</svg>
